{"title":"Blood.Runs.Cold.2011.DVDRip.XviD.ac3.CrEwSaDe","uid":6736804,"size":2094245800,"categoryP":"video","categoryS":"movies","magnet":"?xt=urn:btih:adb96b813cb2dbb8c5ad3474d3d8d6d646273834&amp;dn=Blood.Runs.Cold.2011.DVDRip.XviD.ac3.CrEwSaDe&amp;tr=udp%3A%2F%2Ftracker.openbittorrent.com%3A80&amp;tr=udp%3A%2F%2Fopen.demonii.com%3A1337&amp;tr=udp%3A%2F%2Ftracker.coppersurfer.tk%3A6969&amp;tr=udp%3A%2F%2Fexodus.desync.com%3A6969","seeders":0,"leechers":0,"uploader":"UltraTorrents","files":3,"time":1318357965,"description":"Cast:\nRalf Beck, Elin Hugoson, Hanna Oldenburg\n\nPlot:\nWinona, a successful artist looking to get away from her stressful life. Her manager rents her a house in her home town where she runs in to an old boyfriend. They go back to the house, only to find out it is not as empty as they assumed. \n\n\nINFO, POSTER and TRAILER:\n        &lt;a href=&quot;\nhttp://www.sharepixon.net/movies/blood-runs-cold&quot; rel=&quot;nofollow&quot; target=&quot;_NEW&quot;&gt;\nhttp://www.sharepixon.net/movies/blood-runs-cold&lt;/a&gt;\n\n\t\n\nSCREENSHOTS:\n       &lt;a href=&quot;\nhttp://img.sharepixon.net/?v=bloodrufu.png&quot; rel=&quot;nofollow&quot; target=&quot;_NEW&quot;&gt;\nhttp://img.sharepixon.net/?v=bloodrufu.png&lt;/a&gt; &lt;a href=&quot;\nhttp://img.sharepixon.net/?v=bloodrunsc.png&quot; rel=&quot;nofollow&quot; target=&quot;_NEW&quot;&gt;\nhttp://img.sharepixon.net/?v=bloodrunsc.png&lt;/a&gt;\n\n\n\n\t\nVideo\nID                               : 0\nFormat                           : MPEG-4 Visual\nFormat profile                   : Advanced Simple@L5\nFormat settings, BVOP            : 2\nFormat settings, QPel            : No\nFormat settings, GMC             : No warppoints\nFormat settings, Matrix          : Default (H.263)\nCodec ID                         : XVID\nCodec ID/Hint                    : XviD\nDuration                         : 1h 14mn\nBit rate                         : 3 578 Kbps\nWidth                            : 720 pixels\nHeight                           : 304 pixels\nDisplay aspect ratio             : 2.35:1\nFrame rate                       : 25.000 fps\nColor space                      : YUV\nChroma subsampling               : 4:2:0\nBit depth                        : 8 bits\nScan type                        : Progressive\nCompression mode                 : Lossy\nBits/(Pixel*Frame)               : 0.654\nStream size                      : 1.85 GiB (96%)\nWriting library                  : XviD 1.2.1 (UTC 2008-12-04)\n\nAudio\nID                               : 1\nFormat                           : AC-3\nFormat/Info                      : Audio Coding 3\nMode extension                   : CM (complete main)\nCodec ID                         : 2000\nDuration                         : 1h 14mn\nBit rate mode                    : Constant\nBit rate                         : 128 Kbps\nChannel(s)                       : 6 channels\nChannel positions                : Front: L C R, Side: L R, LFE\nSampling rate                    : 48.0 KHz\nBit depth                        : 16 bits\nCompression mode                 : Lossy\nStream size                      : 67.9 MiB (3%)\nAlignment                        : Aligned on interleaves\nInterleave, duration             : 64 ms (1.60 video frames)\nInterleave, preload duration     : 192 ms","torrent":{"xt":"urn:btih:adb96b813cb2dbb8c5ad3474d3d8d6d646273834","amp;dn":"Blood.Runs.Cold.2011.DVDRip.XviD.ac3.CrEwSaDe","amp;tr":["udp%3A%2F%2Ftracker.openbittorrent.com%3A80","udp%3A%2F%2Fopen.demonii.com%3A1337","udp%3A%2F%2Ftracker.coppersurfer.tk%3A6969","udp%3A%2F%2Fexodus.desync.com%3A6969"],"infoHash":"adb96b813cb2dbb8c5ad3474d3d8d6d646273834","infoHashBuffer":{"type":"Buffer","data":[173,185,107,129,60,178,219,184,197,173,52,116,211,216,214,214,70,39,56,52]},"announce":[],"urlList":[]}}